<?xml version="1.0" standalone="no"?>
<!DOCTYPE svg PUBLIC "-//W3C//DTD SVG 20010904//EN"
 "http://www.w3.org/TR/2001/REC-SVG-20010904/DTD/svg10.dtd">
<svg version="1.0" xmlns="http://www.w3.org/2000/svg"
 width="704.000000pt" height="702.000000pt" viewBox="0 0 704.000000 702.000000"
 preserveAspectRatio="xMidYMid meet">

<g transform="translate(0.000000,702.000000) scale(0.100000,-0.100000)"
fill="red" stroke="none">
<path d="M3315 6994 c-359 -27 -641 -82 -937 -183 -1039 -355 -1851 -1176
-2194 -2219 -116 -352 -168 -688 -168 -1082 0 -548 106 -1019 341 -1510 474
-994 1407 -1709 2503 -1919 399 -76 891 -76 1290 0 966 185 1799 754 2322
1587 100 160 241 446 307 622 420 1133 226 2406 -511 3353 -587 756 -1438
1230 -2398 1337 -101 11 -471 20 -555 14z m210 -2864 c6 0 336 326 735 725
l725 725 312 -312 313 -313 -725 -725 c-399 -399 -725 -730 -725 -735 0 -5
326 -336 725 -735 l725 -725 -313 -313 -312 -312 -725 725 c-399 399 -729 725
-735 725 -6 0 -336 -326 -735 -725 l-725 -725 -312 312 -313 313 725 725 c399
399 725 730 725 735 0 6 -326 336 -725 735 l-725 725 312 312 313 313 725
-725 c399 -399 730 -725 735 -725z"/>
</g>
</svg>
